<svg xmlns="http://www.w3.org/2000/svg" width="1600" height="900" viewBox="0 0 1600 900" role="img" aria-label="RedXolo welcome">
  <defs>
    <linearGradient id="g" x1="0" y1="0" x2="1" y2="1">
      <stop offset="0" stop-color="#FF5A5F" stop-opacity="0.85" />
      <stop offset="1" stop-color="#0B2D4D" stop-opacity="0.85" />
    </linearGradient>
    <radialGradient id="r" cx="30%" cy="25%" r="70%">
      <stop offset="0" stop-color="#ffffff" stop-opacity="0.45" />
      <stop offset="1" stop-color="#ffffff" stop-opacity="0" />
    </radialGradient>
  </defs>
  <rect width="1600" height="900" fill="url(#g)" />
  <rect width="1600" height="900" fill="url(#r)" />
  <g fill="none" stroke="#ffffff" stroke-opacity="0.55">
    <path d="M180 720c160-220 410-330 750-330 210 0 380 45 520 130" stroke-width="6" />
    <path d="M240 760c150-190 380-285 690-285 200 0 360 40 490 115" stroke-width="4" />
  </g>
  <g fill="#ffffff">
    <text x="120" y="220" font-family="ui-sans-serif, system-ui, -apple-system, Segoe UI, Roboto, Helvetica, Arial" font-size="74" font-weight="900" letter-spacing="-1">
      Welcome to RedXolo
    </text>
    <text x="120" y="300" font-family="ui-sans-serif, system-ui, -apple-system, Segoe UI, Roboto, Helvetica, Arial" font-size="30" font-weight="700" opacity="0.9">
      Your updates will appear here — photos, videos, tags, and a comfy vibe.
    </text>
  </g>
  <g transform="translate(120,360)">
    <rect x="0" y="0" width="520" height="340" rx="28" fill="#ffffff" fill-opacity="0.15" stroke="#ffffff" stroke-opacity="0.25" />
    <g transform="translate(34,42)" fill="#ffffff" opacity="0.92">
      <circle cx="44" cy="44" r="44" fill-opacity="0.20" />
      <path d="M44 92s-30-19-40-38C-4 40 2 26 15 22c8-2 17 0 23 7 6-7 15-9 23-7 13 4 19 18 11 32-10 19-40 38-40 38z" />
      <text x="120" y="38" font-size="26" font-weight="900">Like + Share</text>
      <text x="120" y="76" font-size="18" font-weight="700" opacity="0.85">Try the hearts and share buttons.</text>
      <text x="120" y="118" font-size="18" font-weight="700" opacity="0.85">Use search + tags to filter.</text>
    </g>
  </g>
</svg>
